<svg xmlns="http://www.w3.org/2000/svg" viewBox="0 0 64 64" role="img" aria-label="GC Communication">
  <rect width="64" height="64" rx="12" fill="#ffffff"/>
  <g transform="translate(7 15.26) scale(0.026455)" fill="#0f0f0f">
    <path fill-rule="evenodd" clip-rule="evenodd" d="M1052.06 18.083L1053.04 423.688C930.359 140.552 755.759 -31.0644 440.121 68.491C148.286 212.017 104.969 754.136 250.262 1006.8C393.27 1287.2 823.139 1278.2 908.492 1018.57C929.942 943.118 919.825 829.011 908.886 773.01C897.958 716.997 790.749 721.364 707.647 700.048H1203.08C1128.76 716.997 1059.01 731.256 1051.67 783.004L1051.87 1265.7L943.211 1131.83C520.601 1391.06 0.596483 1168.27 5.72205e-06 658.464C22.7112 152.257 514.175 -146.87 950.819 112.259C993.473 137.559 983.58 110.661 1052.06 18.083Z"/>
    <path fill-rule="evenodd" clip-rule="evenodd" d="M1094.69 148.275C1345.38 -44.2429 1604.59 20.4378 1752.92 120.038C1766.73 130.719 1774.93 130.719 1782.73 116.898L1848.63 0L1844.02 446.795C1795.21 298.61 1692.2 135.614 1542.79 83.3156C1393.08 30.9156 1206.08 48.3372 1094.3 285.972L1094.69 148.275Z"/>
    <path fill-rule="evenodd" clip-rule="evenodd" d="M1094.3 931.412C1285.18 1304.8 1698.69 1276.22 1882.81 916.759C1887.77 911.503 1891.29 917.198 1889.29 922.667C1766.34 1258.98 1353.77 1338.45 1095.09 1139.32L1094.3 931.412Z"/>
  </g>
</svg>
